<svg version="1.1" viewBox="0.0 0.0 480.40157480314963 480.40157480314963" fill="none" stroke="none" stroke-linecap="square" stroke-miterlimit="10" xmlns:xlink="http://www.w3.org/1999/xlink" xmlns="http://www.w3.org/2000/svg"><clipPath id="p.0"><path d="m0 0l480.40158 0l0 480.40158l-480.40158 0l0 -480.40158z" clip-rule="nonzero"/></clipPath><g clip-path="url(#p.0)"><path fill="#000000" fill-opacity="0.0" d="m0 0l480.40158 0l0 480.40158l-480.40158 0z" fill-rule="evenodd"/><path fill="#ff2c14" d="m0 0l480.0 0l0 480.0l-480.0 0z" fill-rule="evenodd"/><path stroke="#ff2c14" stroke-width="1.0" stroke-linejoin="round" stroke-linecap="butt" d="m0 0l480.0 0l0 480.0l-480.0 0z" fill-rule="evenodd"/><path fill="#000000" fill-opacity="0.0" d="m0 -42.204723l480.0 0l0 466.2047l-480.0 0z" fill-rule="evenodd"/><path fill="#ffffff" d="m139.6651 90.51274q24.03125 0 41.828125 12.828125q17.8125 12.828125 27.296875 35.625q9.484375 22.796875 9.484375 52.203125q0 29.421875 -9.484375 52.21875q-9.484375 22.79689 -27.296875 35.54689q-17.796875 12.734375 -41.828125 12.734375q-24.015625 0 -41.828125 -12.734375q-17.8125 -12.75 -27.296875 -35.54689q-9.46875 -22.796875 -9.46875 -52.21875q0 -29.40625 9.46875 -52.203125q9.484375 -22.796875 27.296875 -35.625q17.8125 -12.828125 41.828125 -12.828125zm0 37.09375q-16.984375 0 -25.890625 16.09375q-8.90625 16.09375 -8.90625 47.46875q0 31.375 8.90625 47.390625q8.90625 16.015625 25.890625 16.015625q17.0 0 25.90625 -16.015625q8.90625 -16.015625 8.90625 -47.390625q0 -31.375 -8.90625 -47.46875q-8.90625 -16.09375 -25.90625 -16.09375zm264.55365 126.96875q3.921875 0 6.046875 1.390625q2.125 1.3906403 3.1875 4.9843903q1.0625 3.59375 1.0625 10.453125q0 6.875 -1.0625 10.46875q-1.0625 3.59375 -3.1875 4.90625q-2.125 1.296875 -6.046875 1.296875l-119.609375 0q-3.921875 0 -6.046875 -1.296875q-2.125 -1.3125 -3.1875 -4.90625q-1.0625 -3.59375 -1.0625 -10.46875q0 -6.859375 1.0625 -10.453125q1.0625 -3.59375 3.1875 -4.9843903q2.125 -1.390625 6.046875 -1.390625l40.203125 0l0 -110.140625l-34.15625 19.453125q-2.9375 1.625 -5.234375 1.625q-3.09375 0 -5.953125 -2.9375q-2.859375 -2.9375 -5.8125 -9.3125q-3.265625 -7.1875 -3.265625 -11.921875q0 -3.4375 1.546875 -5.71875q1.5625 -2.296875 4.828125 -4.09375l68.953125 -38.890625q4.578125 -2.609375 9.3125 -2.609375q4.75 0 7.6875 2.625q2.9375 2.609375 2.9375 7.828125l0 154.09375l38.5625 0z" fill-rule="nonzero"/><path fill="#000000" fill-opacity="0.0" d="m0 304.0l480.0 0l0 124.44095l-480.0 0z" fill-rule="evenodd"/><path fill="#ffffff" d="m85.812225 345.98126q8.84375 0 13.09375 3.625q4.25 3.609375 4.25 10.03125q0 3.46875 -1.71875 5.953125q-1.703125 2.46875 -4.796875 3.953125q9.6875 2.625 9.6875 12.09375q0 7.15625 -4.703125 10.859375q-4.6875 3.703125 -13.4375 3.703125l-24.421875 0q-1.015625 0 -1.5625 -0.328125q-0.546875 -0.34375 -0.828125 -1.265625q-0.265625 -0.9375 -0.265625 -2.71875q0 -1.78125 0.265625 -2.703125q0.28125 -0.9375 0.828125 -1.296875q0.546875 -0.359375 1.5625 -0.359375l4.53125 0l0 -32.875l-4.53125 0q-1.015625 0 -1.5625 -0.34375q-0.546875 -0.34375 -0.828125 -1.265625q-0.265625 -0.9375 -0.265625 -2.703125q0 -1.78125 0.265625 -2.703125q0.28125 -0.9375 0.828125 -1.296875q0.546875 -0.359375 1.5625 -0.359375l22.046875 0zm-6.9375 20.0l6.0 0q3.8125 0 5.671875 -1.34375q1.859375 -1.359375 1.859375 -4.15625q0 -2.828125 -1.796875 -4.109375q-1.796875 -1.296875 -5.734375 -1.296875l-6.0 0l0 10.90625zm0 21.125l8.125 0q8.203125 0 8.203125 -5.890625q0 -3.125 -2.015625 -4.625q-2.0 -1.5 -6.1875 -1.5l-8.125 0l0 12.015625zm72.475525 -41.125q1.015625 0 1.5625 0.359375q0.5625 0.359375 0.828125 1.296875q0.28125 0.921875 0.28125 2.703125q0 1.765625 -0.28125 2.703125q-0.265625 0.921875 -0.828125 1.265625q-0.546875 0.34375 -1.5625 0.34375l-9.984375 0l0 32.875l10.828125 0q1.015625 0 1.5625 0.359375q0.5625 0.359375 0.828125 1.296875q0.28125 0.921875 0.28125 2.703125q0 1.78125 -0.28125 2.71875q-0.265625 0.921875 -0.828125 1.265625q-0.546875 0.328125 -1.5625 0.328125l-32.234375 0q-1.015625 0 -1.5625 -0.328125q-0.546875 -0.34375 -0.828125 -1.265625q-0.28125 -0.9375 -0.28125 -2.71875q0 -1.78125 0.28125 -2.703125q0.28125 -0.9375 0.828125 -1.296875q0.546875 -0.359375 1.5625 -0.359375l10.828125 0l0 -32.875l-9.984375 0q-1.015625 0 -1.5625 -0.34375q-0.546875 -0.34375 -0.828125 -1.265625q-0.265625 -0.9375 -0.265625 -2.703125q0 -1.78125 0.265625 -2.703125q0.28125 -0.9375 0.828125 -1.296875q0.546875 -0.359375 1.5625 -0.359375l30.546875 0zm55.7724 0q1.484375 0 2.109375 0.640625q0.640625 0.625 0.640625 2.109375l0 17.84375q0 1.40625 -1.171875 2.046875q-1.15625 0.625 -3.5625 0.625q-2.328125 0 -3.25 -0.609375q-0.90625 -0.625 -0.90625 -2.0625l0 -11.5l-7.65625 0l0 32.453125l9.140625 0q1.015625 0 1.5625 0.359375q0.5625 0.359375 0.828125 1.296875q0.28125 0.921875 0.28125 2.703125q0 1.78125 -0.28125 2.71875q-0.265625 0.921875 -0.828125 1.265625q-0.546875 0.328125 -1.5625 0.328125l-28.859375 0q-1.015625 0 -1.5625 -0.328125q-0.546875 -0.34375 -0.828125 -1.265625q-0.265625 -0.9375 -0.265625 -2.71875q0 -1.78125 0.265625 -2.703125q0.28125 -0.9375 0.828125 -1.296875q0.546875 -0.359375 1.5625 -0.359375l9.140625 0l0 -32.453125l-7.65625 0l0 11.5q0 1.40625 -1.171875 2.046875q-1.15625 0.625 -3.5625 0.625q-2.328125 0 -3.25 -0.609375q-0.90625 -0.625 -0.90625 -2.0625l0 -17.84375q0 -1.484375 0.65625 -2.109375q0.65625 -0.640625 2.09375 -0.640625l38.171875 0zm49.4599 -0.9375q2.625 0 3.59375 0.59375q0.984375 0.59375 0.984375 2.078125l0 16.234375q0 1.453125 -1.296875 2.0625q-1.28125 0.609375 -4.296875 0.609375q-1.984375 0 -3.0625 -0.265625q-1.078125 -0.28125 -1.5 -0.828125q-0.421875 -0.5625 -0.421875 -1.578125q0 -4.21875 -2.3125 -6.75q-2.296875 -2.546875 -6.578125 -2.546875q-5.875 0 -8.921875 4.234375q-3.046875 4.21875 -3.046875 12.171875q0 7.875 3.234375 12.171875q3.234375 4.296875 9.15625 4.296875q3.6875 0 7.0625 -0.984375q3.390625 -1.0 7.375 -3.03125q0.671875 -0.34375 1.265625 -0.34375q1.984375 0 3.296875 3.515625q0.59375 1.609375 0.59375 2.875q0 2.15625 -1.953125 3.09375q-9.046875 4.484375 -18.0625 4.484375q-6.9375 0 -12.234375 -3.171875q-5.28125 -3.1875 -8.1875 -9.078125q-2.890625 -5.90625 -2.890625 -13.828125q0 -7.859375 2.828125 -13.765625q2.84375 -5.90625 7.859375 -9.078125q5.015625 -3.171875 11.359375 -3.171875q7.40625 0 11.0 5.328125l0 -2.65625q0 -1.4375 1.21875 -2.046875q1.234375 -0.625 3.9375 -0.625zm35.381775 0q6.9375 0 12.21875 3.15625q5.296875 3.15625 8.1875 9.0625q2.90625 5.890625 2.90625 13.796875q0 7.921875 -2.90625 13.828125q-2.890625 5.890625 -8.1875 9.078125q-5.28125 3.171875 -12.21875 3.171875q-6.9375 0 -12.234375 -3.171875q-5.28125 -3.1875 -8.1875 -9.078125q-2.890625 -5.90625 -2.890625 -13.828125q0 -7.90625 2.890625 -13.796875q2.90625 -5.90625 8.1875 -9.0625q5.296875 -3.15625 12.234375 -3.15625zm0 9.609375q-5.890625 0 -8.9375 4.234375q-3.046875 4.21875 -3.046875 12.171875q0 7.96875 3.046875 12.21875q3.046875 4.25 8.9375 4.25q5.875 0 8.921875 -4.25q3.046875 -4.25 3.046875 -12.21875q0 -7.953125 -3.046875 -12.171875q-3.046875 -4.234375 -8.921875 -4.234375zm53.475525 -8.671875q8.9375 0 13.71875 3.9375q4.78125 3.921875 4.78125 11.421875q0 9.765625 -10.5 12.3125q2.28125 0.875 3.640625 2.625q0.890625 1.140625 1.625 2.390625q0.75 1.234375 1.71875 3.140625q1.015625 2.03125 1.5625 2.921875q0.84375 1.390625 1.6875 2.09375q0.859375 0.703125 1.90625 0.703125l0.8125 0q1.015625 0 1.5625 0.359375q0.546875 0.359375 0.8125 1.296875q0.28125 0.921875 0.28125 2.703125q0 1.78125 -0.28125 2.71875q-0.265625 0.921875 -0.8125 1.265625q-0.546875 0.328125 -1.5625 0.328125l-4.109375 0q-3.34375 0 -5.421875 -1.34375q-2.0625 -1.359375 -3.796875 -4.53125q-0.859375 -1.484375 -2.03125 -4.0625q-0.84375 -1.953125 -1.609375 -3.359375q-0.765625 -1.421875 -1.703125 -2.78125q-1.3125 -1.8125 -2.921875 -2.609375q-1.59375 -0.8125 -3.84375 -0.8125l-2.703125 0l0 10.828125l4.109375 0q1.015625 0 1.5625 0.359375q0.546875 0.359375 0.8125 1.296875q0.28125 0.921875 0.28125 2.703125q0 1.78125 -0.28125 2.71875q-0.265625 0.921875 -0.8125 1.265625q-0.546875 0.328125 -1.5625 0.328125l-19.21875 0q-1.015625 0 -1.5625 -0.328125q-0.546875 -0.34375 -0.828125 -1.265625q-0.28125 -0.9375 -0.28125 -2.71875q0 -1.78125 0.28125 -2.703125q0.28125 -0.9375 0.828125 -1.296875q0.546875 -0.359375 1.5625 -0.359375l4.53125 0l0 -32.875l-4.53125 0q-1.015625 0 -1.5625 -0.34375q-0.546875 -0.34375 -0.828125 -1.265625q-0.28125 -0.9375 -0.28125 -2.703125q0 -1.78125 0.28125 -2.703125q0.28125 -0.9375 0.828125 -1.296875q0.546875 -0.359375 1.5625 -0.359375l22.296875 0zm-7.1875 21.609375l6.296875 0q4.328125 0 6.390625 -1.53125q2.078125 -1.546875 2.078125 -4.71875q0 -3.171875 -2.078125 -4.71875q-2.0625 -1.546875 -6.390625 -1.546875l-6.296875 0l0 12.515625zm59.99115 -21.609375q9.734375 0 14.75 4.375q5.015625 4.375 5.015625 12.625q0 8.25 -5.015625 12.65625q-5.015625 4.40625 -14.75 4.40625l-6.34375 0l0 7.484375l9.1875 0q1.015625 0 1.5625 0.359375q0.546875 0.359375 0.8125 1.296875q0.28125 0.921875 0.28125 2.703125q0 1.78125 -0.28125 2.71875q-0.265625 0.921875 -0.8125 1.265625q-0.546875 0.328125 -1.5625 0.328125l-25.984375 0q-1.015625 0 -1.5625 -0.328125q-0.546875 -0.34375 -0.828125 -1.265625q-0.28125 -0.9375 -0.28125 -2.71875q0 -1.78125 0.28125 -2.703125q0.28125 -0.9375 0.828125 -1.296875q0.546875 -0.359375 1.5625 -0.359375l6.21875 0l0 -32.875l-6.21875 0q-1.015625 0 -1.5625 -0.34375q-0.546875 -0.34375 -0.828125 -1.265625q-0.28125 -0.9375 -0.28125 -2.703125q0 -1.78125 0.28125 -2.703125q0.28125 -0.9375 0.828125 -1.296875q0.546875 -0.359375 1.5625 -0.359375l23.140625 0zm-6.34375 24.953125l5.03125 0q5.046875 0 7.59375 -1.9375q2.5625 -1.953125 2.5625 -6.015625q0 -4.0625 -2.5625 -5.984375q-2.546875 -1.921875 -7.59375 -1.921875l-5.03125 0l0 15.859375z" fill-rule="nonzero"/></g></svg>